<?xml version="1.0" standalone="no"?>
<!DOCTYPE svg PUBLIC "-//W3C//DTD SVG 20010904//EN"
 "http://www.w3.org/TR/2001/REC-SVG-20010904/DTD/svg10.dtd">
<svg version="1.0" xmlns="http://www.w3.org/2000/svg"
 width="2880.000000pt" height="2894.000000pt" viewBox="0 0 2880.000000 2894.000000"
 preserveAspectRatio="xMidYMid meet">

<g transform="translate(0.000000,2894.000000) scale(0.100000,-0.100000)"
fill="#000000" stroke="none">
<path d="M6662 25109 c-531 -51 -1014 -220 -1445 -505 -187 -125 -314 -229
-483 -398 -170 -170 -279 -303 -400 -486 -268 -408 -431 -852 -495 -1350 -21
-156 -21 -15573 -1 -15730 90 -693 380 -1306 850 -1791 496 -513 1097 -824
1802 -930 l155 -24 7800 0 7800 0 145 23 c683 108 1274 405 1750 882 477 477
773 1064 882 1750 l23 145 0 7790 c0 8187 2 7832 -41 8075 -26 145 -92 387
-145 528 -165 440 -411 817 -750 1148 -519 506 -1178 807 -1909 874 -139 12
-15408 12 -15538 -1z"/>
</g>
</svg>
